<svg width="24" height="24" viewBox="0 0 24 24" fill="none" xmlns="http://www.w3.org/2000/svg">
<g clip-path="url(#clip0_66_791)">
<path d="M12 0C5.388 0 0 5.388 0 12C0 18.612 5.388 24 12 24C18.612 24 24 18.612 24 12C24 5.388 18.612 0 12 0ZM12 21.6C6.708 21.6 2.4 17.292 2.4 12C2.4 6.708 6.708 2.4 12 2.4C17.292 2.4 21.6 6.708 21.6 12C21.6 17.292 17.292 21.6 12 21.6ZM15.6 12C15.6 13.992 13.992 15.6 12 15.6C10.008 15.6 8.4 13.992 8.4 12C8.4 10.008 10.008 8.4 12 8.4C13.992 8.4 15.6 10.008 15.6 12Z" fill="#B472F1"/>
</g>
<defs>
<clipPath id="clip0_66_791">
<rect width="24" height="24" fill="white"/>
</clipPath>
</defs>
</svg>
