<svg width="40" height="40" viewBox="0 0 40 40" fill="none" xmlns="http://www.w3.org/2000/svg">
<path d="M20 0C8.955 0 0 8.955 0 20C0 31.045 8.955 40 20 40C31.045 40 40 31.045 40 20C40 8.955 31.045 0 20 0ZM11.6033 12.8C12.86 12.8 13.8317 13.715 13.945 14.8C14.06 15.7717 13.66 16.6283 12.575 17.1433C12.0033 17.4283 11.775 17.43 11.66 17.2583C11.6033 17.1433 11.66 17.03 11.775 16.915C12.8033 16.0583 12.8033 15.3717 12.6883 14.4017C12.6317 13.7717 12.175 13.3717 11.7167 13.3717C9.71667 13.3717 6.86 17.8283 7.26 21.0867C7.43167 22.3433 8.175 23.83 9.775 23.83C10.2883 23.83 10.8583 23.6583 11.375 23.43C12.2083 22.99 12.7067 22.6467 13.2033 22.0967C13.0817 20.6217 14.3767 18.6867 16.2883 18.6867C17.1467 18.6867 17.8317 19.0283 17.8883 19.6583C18.0017 20.515 17.26 20.6283 17.0317 20.6283C16.8033 20.6283 16.4017 20.5717 16.4017 20.345C16.345 20.115 16.9167 20.2283 16.86 19.715C16.8017 19.3717 16.46 19.2583 16.1167 19.2583C14.9167 19.2583 14.2317 20.915 14.4017 21.9433C14.46 22.4017 14.6883 22.8583 15.1467 22.8583C15.4883 22.8583 16.0033 22.3417 16.175 21.6C16.2883 21.0867 16.7467 20.7433 17.1467 20.7433C17.3167 20.7433 17.43 20.8 17.4883 21.0283V21.2583C17.4317 21.4867 17.26 22.1717 17.3183 22.3433C17.3183 22.4583 17.375 22.6283 17.6017 22.6283C17.755 22.6283 18.3283 22.3283 18.8967 21.8633C19.0917 20.88 19.3183 19.7 19.3183 19.6017C19.375 19.2017 19.5467 18.8017 20.3467 18.8017C20.5183 18.8017 20.6317 18.8583 20.6883 19.0867V19.3167L20.4617 20.345C21.2033 19.3733 22.29 18.6883 22.975 18.6883C23.2617 18.6883 23.49 18.8583 23.49 19.145C23.49 19.3167 23.49 19.6017 23.375 19.8883C23.1467 20.5167 22.86 21.4883 22.6883 22.345C22.6883 22.5733 22.7467 22.8017 23.0333 22.8017C23.3183 22.8017 24.175 22.4583 24.86 21.545L24.8717 21.5383C24.8683 21.425 24.86 21.315 24.86 21.2017C24.86 20.5167 24.9183 19.945 25.0333 19.545C25.1467 19.0883 25.7183 18.6883 26.0617 18.6883C26.2333 18.6883 26.4033 18.8033 26.4033 18.9733C26.4033 19.0317 26.4033 19.145 26.3467 19.2017C26.1183 19.945 25.9467 20.63 25.9467 21.3167C25.9467 21.7167 26.0033 22.2867 26.1167 22.63C26.1167 22.6867 26.175 22.745 26.2333 22.745C26.3467 22.745 27.1467 22.0033 27.7167 21.0317C27.2033 20.6883 26.9167 20.1167 26.9167 19.4317C26.9167 18.2317 27.66 17.6033 28.3467 17.6033C28.9183 17.6033 29.375 18.0033 29.375 18.8033C29.375 19.3167 29.2033 19.8867 28.9183 20.4033H29.0883C29.2696 20.4092 29.4501 20.3766 29.6179 20.3077C29.7857 20.2387 29.9369 20.135 30.0617 20.0033C30.1141 19.9168 30.1921 19.8486 30.285 19.8083C30.8433 19.1 31.6683 18.575 32.635 18.575C33.435 18.575 34.175 18.9167 34.2333 19.545C34.3467 20.4033 33.6033 20.575 33.375 20.575L33.3717 20.5717C33.1417 20.5717 32.7433 20.5133 32.7433 20.285C32.7433 20.0567 33.2583 20.1717 33.2 19.6583C33.1433 19.315 32.8 19.2 32.4567 19.2C31.3133 19.2 30.5733 20.685 30.7433 21.885C30.8 22.3433 31.0283 22.8567 31.485 22.8567C31.8283 22.8567 32.3433 22.3433 32.5717 21.6C32.685 21.1433 33.1433 20.7433 33.5433 20.7433C33.715 20.7433 33.8267 20.8 33.885 21.0283C33.885 21.1433 33.885 21.3717 33.6567 22.115C33.3733 22.6283 33.3717 22.915 33.4283 23.1433C33.485 23.6 33.7133 23.9433 33.9433 24.115C34 24.1717 34.0567 24.285 34.0567 24.285C34.0567 24.4 34 24.515 33.8283 24.515C33.7717 24.515 33.715 24.515 33.6567 24.4567C32.8 24.115 32.4567 23.5433 32.3417 22.9717C32 23.3717 31.6 23.6 31.1417 23.6C30.4 23.6 29.6583 22.915 29.5417 22.0567C29.5089 21.6914 29.5515 21.3232 29.6667 20.975C29.3283 21.1917 28.9633 21.3133 28.6283 21.3133H28.345C27.6 22.4 26.8 23.1433 26.2283 23.485C26.0342 23.5883 25.8197 23.6475 25.6 23.6583C25.4867 23.6583 25.315 23.6 25.2583 23.485C25.1 23.2317 24.9983 22.8317 24.9367 22.3733C24.135 23.2517 23.0283 23.715 22.515 23.715C21.9433 23.715 21.6017 23.3717 21.545 22.7983V22.1717C21.715 20.915 22.1733 20.1717 22.1733 19.9433C22.1718 19.9132 22.1592 19.8847 22.138 19.8631C22.1168 19.8416 22.0885 19.8287 22.0583 19.8267C21.6583 19.8267 20.345 21.2 20.115 22.115L19.9433 22.8567C19.83 23.3717 19.315 23.715 18.9733 23.715C18.8017 23.715 18.6867 23.6567 18.63 23.4283V23.2L18.7067 22.8117C17.9817 23.3283 17.2567 23.6583 16.915 23.6583C16.4017 23.6583 16.115 23.3717 16.0583 22.9717C15.715 23.4283 15.3167 23.6583 14.8017 23.6583C14.215 23.6583 13.6417 23.2583 13.365 22.67C12.9583 23.1283 12.4933 23.5917 11.945 23.9433C11.145 24.4583 10.2317 24.8583 9.145 24.8583C8.175 24.8583 7.31667 24.3433 6.86 23.8867C6.17333 23.2583 5.775 22.2867 5.71667 21.3717C5.375 18.5717 7.08833 14.9717 9.71667 13.3717C10.3467 13.03 10.975 12.8 11.6033 12.8ZM27.8867 18.285C27.7133 18.285 27.6 18.5717 27.6 18.8567C27.6 19.3133 27.8283 19.8283 28.115 20.115C28.2267 19.8032 28.2842 19.4746 28.285 19.1433C28.285 18.5717 28.0583 18.285 27.8867 18.285Z" fill="#27BFCA"/>
</svg>
