<svg width="35" height="140" viewBox="0 0 35 140" fill="none" xmlns="http://www.w3.org/2000/svg">
<line x1="18" y1="-2.18557e-08" x2="18" y2="125" stroke="#B472F1" stroke-dasharray="3 3"/>
<g clip-path="url(#clip0_430_2371)">
<path d="M17.5 125C13.3675 125 10 128.367 10 132.5C10 136.633 13.3675 140 17.5 140C21.6325 140 25 136.633 25 132.5C25 128.367 21.6325 125 17.5 125ZM17.5 138.5C14.1925 138.5 11.5 135.807 11.5 132.5C11.5 129.193 14.1925 126.5 17.5 126.5C20.8075 126.5 23.5 129.193 23.5 132.5C23.5 135.807 20.8075 138.5 17.5 138.5ZM19.75 132.5C19.75 133.745 18.745 134.75 17.5 134.75C16.255 134.75 15.25 133.745 15.25 132.5C15.25 131.255 16.255 130.25 17.5 130.25C18.745 130.25 19.75 131.255 19.75 132.5Z" fill="#B472F1"/>
</g>
<defs>
<clipPath id="clip0_430_2371">
<rect width="15" height="15" fill="white" transform="translate(10 125)"/>
</clipPath>
</defs>
</svg>
