<svg width="41" height="355" viewBox="0 0 41 355" fill="none" xmlns="http://www.w3.org/2000/svg">
<g clip-path="url(#clip0_114_2155)">
<path d="M20.5 7.5C20.8315 7.5 21.1495 7.6317 21.3839 7.86612C21.6183 8.10054 21.75 8.41848 21.75 8.75V13.75C21.75 14.0815 21.6183 14.3995 21.3839 14.6339C21.1495 14.8683 20.8315 15 20.5 15C20.1685 15 19.8505 14.8683 19.6161 14.6339C19.3817 14.3995 19.25 14.0815 19.25 13.75V8.75C19.25 8.41848 19.3817 8.10054 19.6161 7.86612C19.8505 7.6317 20.1685 7.5 20.5 7.5ZM30.5 27.5C30.5 30.1522 29.4464 32.6957 27.5711 34.5711C25.6957 36.4464 23.1522 37.5 20.5 37.5C17.8478 37.5 15.3043 36.4464 13.4289 34.5711C11.5536 32.6957 10.5 30.1522 10.5 27.5V12.5C10.5 9.84784 11.5536 7.3043 13.4289 5.42893C15.3043 3.55357 17.8478 2.5 20.5 2.5C23.1522 2.5 25.6957 3.55357 27.5711 5.42893C29.4464 7.3043 30.5 9.84784 30.5 12.5V27.5ZM20.5 0C17.1848 0 14.0054 1.31696 11.6612 3.66117C9.31696 6.00537 8 9.18479 8 12.5V27.5C8 30.8152 9.31696 33.9946 11.6612 36.3388C14.0054 38.683 17.1848 40 20.5 40C23.8152 40 26.9946 38.683 29.3388 36.3388C31.683 33.9946 33 30.8152 33 27.5V12.5C33 9.18479 31.683 6.00537 29.3388 3.66117C26.9946 1.31696 23.8152 0 20.5 0Z" fill="#B472F1"/>
</g>
<line x1="20.625" y1="39.9988" x2="21.375" y2="339.999" stroke="#B472F1" stroke-dasharray="3 3"/>
<g clip-path="url(#clip1_114_2155)">
<path d="M20.5 340C16.3675 340 13 343.367 13 347.5C13 351.633 16.3675 355 20.5 355C24.6325 355 28 351.633 28 347.5C28 343.367 24.6325 340 20.5 340ZM20.5 353.5C17.1925 353.5 14.5 350.807 14.5 347.5C14.5 344.193 17.1925 341.5 20.5 341.5C23.8075 341.5 26.5 344.193 26.5 347.5C26.5 350.807 23.8075 353.5 20.5 353.5ZM22.75 347.5C22.75 348.745 21.745 349.75 20.5 349.75C19.255 349.75 18.25 348.745 18.25 347.5C18.25 346.255 19.255 345.25 20.5 345.25C21.745 345.25 22.75 346.255 22.75 347.5Z" fill="#B472F1"/>
</g>
<defs>
<clipPath id="clip0_114_2155">
<rect width="40" height="40" fill="white" transform="translate(0.5)"/>
</clipPath>
<clipPath id="clip1_114_2155">
<rect width="15" height="15" fill="white" transform="translate(13 340)"/>
</clipPath>
</defs>
</svg>
