<svg width="24" height="24" viewBox="0 0 24 24" fill="none" xmlns="http://www.w3.org/2000/svg">
<g clip-path="url(#clip0_126_3193)">
<path d="M6.76 5.29L4.96 3.5L3.55 4.91L5.34 6.7L6.76 5.29ZM1 10.95H4V12.95H1V10.95ZM11 1H13V3.95H11V1ZM19.04 3.495L20.448 4.902L18.658 6.692L17.251 5.284L19.04 3.495ZM17.24 18.61L19.03 20.41L20.44 19L18.64 17.21L17.24 18.61ZM20 10.95H23V12.95H20V10.95ZM12 5.95C8.69 5.95 6 8.64 6 11.95C6 15.26 8.69 17.95 12 17.95C15.31 17.95 18 15.26 18 11.95C18 8.64 15.31 5.95 12 5.95ZM12 15.95C9.79 15.95 8 14.16 8 11.95C8 9.74 9.79 7.95 12 7.95C14.21 7.95 16 9.74 16 11.95C16 14.16 14.21 15.95 12 15.95ZM11 19.95H13V22.9H11V19.95ZM3.55 18.99L4.96 20.4L6.75 18.6L5.34 17.19L3.55 18.99Z" fill="#C4C8BB"/>
</g>
<defs>
<clipPath id="clip0_126_3193">
<rect width="24" height="24" fill="white"/>
</clipPath>
</defs>
</svg>
