<svg width="43" height="40" viewBox="0 0 43 40" fill="none" xmlns="http://www.w3.org/2000/svg">
<path d="M21.5075 1.7189e-06C9.84631 -0.0045886 0.401367 9.18522 0.401367 20.5279C0.401367 29.4974 6.30976 37.1219 14.5381 39.922C15.6463 40.1928 15.4765 39.4262 15.4765 38.9029V35.3454C9.0777 36.0753 8.81836 31.9532 8.38926 31.2646C7.52162 29.8233 5.47042 29.456 6.08342 28.7675C7.54048 28.0376 9.02583 28.9511 10.747 31.4253C11.9918 33.2201 14.4203 32.9171 15.651 32.6188C15.9197 31.5401 16.495 30.5761 17.2872 29.8279C10.6574 28.6711 7.89414 24.7326 7.89414 20.0505C7.89414 17.7783 8.66275 15.6897 10.1717 14.0051C9.20973 11.2279 10.2613 8.85013 10.4027 8.49667C13.1424 8.25798 15.9905 10.4062 16.2121 10.5761C17.7682 10.1675 19.5459 9.9518 21.5358 9.9518C23.5351 9.9518 25.3175 10.1767 26.8878 10.5899C27.4206 10.1951 30.0612 8.34978 32.6076 8.57471C32.7443 8.92816 33.7723 11.2509 32.8669 13.9913C34.3947 15.6805 35.1727 17.7875 35.1727 20.0643C35.1727 24.7556 32.3906 28.6986 25.7419 29.837C26.3114 30.3822 26.7636 31.0324 27.0721 31.7496C27.3805 32.4668 27.5391 33.2367 27.5385 34.0142V39.1783C27.5762 39.5915 27.5385 40 28.2458 40C36.5968 37.2596 42.6089 29.58 42.6089 20.5325C42.6089 9.18522 33.1593 1.7189e-06 21.5075 1.7189e-06Z" fill="#E3E3E3"/>
</svg>
