<svg width="24" height="24" viewBox="0 0 24 24" fill="none" xmlns="http://www.w3.org/2000/svg">
<path d="M12.9584 8.27993C13.5378 7.64603 14.5845 8.17349 14.4197 9.01632L14.0545 10.8841C13.9977 11.175 14.0965 11.4745 14.3152 11.6745L15.7201 12.9584C16.354 13.5378 15.8265 14.5845 14.9837 14.4197L13.1159 14.0545C12.825 13.9977 12.5255 14.0965 12.3255 14.3152L11.0416 15.7201C10.4622 16.354 9.41548 15.8265 9.58026 14.9837L9.94545 13.1159C10.0023 12.825 9.90354 12.5255 9.68475 12.3255L8.27993 11.0416C7.64603 10.4622 8.17349 9.41548 9.01632 9.58026L10.8841 9.94545C11.175 10.0023 11.4745 9.90354 11.6745 9.68475L12.9584 8.27993Z" fill="#E3E3E3"/>
</svg>
