<svg width="24" height="24" viewBox="0 0 24 24" fill="none" xmlns="http://www.w3.org/2000/svg">
<g clip-path="url(#clip0_91_1000)">
<path d="M5 21L5 23L21 23C22.1 23 23 22.1 23 21L23 5L21 5L21 21L5 21ZM0.999999 3L1 17C1 18.1 1.9 19 3 19L17 19C18.1 19 19 18.1 19 17L19 3C19 1.9 18.1 0.999999 17 0.999999L3 1C1.9 1 0.999999 1.9 0.999999 3ZM17 3L17 17L17.5 2.5L3 3L17 3Z" fill="white"/>
</g>
<defs>
<clipPath id="clip0_91_1000">
<rect width="24" height="24" fill="white" transform="translate(0 24) rotate(-90)"/>
</clipPath>
</defs>
</svg>
