<svg width="40" height="40" viewBox="0 0 40 40" fill="none" xmlns="http://www.w3.org/2000/svg">
<g clip-path="url(#clip0_114_1753)">
<path d="M34.1337 7.84082L31.5586 36.6896L19.9829 39.8987L8.43922 36.694L5.8667 7.84082H34.1337Z" fill="#E44D26"/>
<path d="M20 37.446L29.3537 34.8528L31.5542 10.2002H20V37.446Z" fill="#F16529"/>
<path d="M14.9943 17.278H20.0004V13.7393H11.127L11.2116 14.6886L12.0814 24.4404H20.0004V20.9017H15.3178L14.9943 17.278ZM15.7919 26.2098H12.2395L12.7353 31.7662L19.9841 33.7784L20.0004 33.7739V30.0922L19.9849 30.0963L16.0439 29.0321L15.7919 26.2098Z" fill="#EBEBEB"/>
<path d="M8.49658 0H10.2949V1.77673H11.94V0H13.7385V5.38039H11.9401V3.57873H10.295V5.38039H8.49669L8.49658 0ZM16.1032 1.78427H14.5203V0H19.4858V1.78427H17.9019V5.38039H16.1036V1.78427H16.1032ZM20.2739 0H22.149L23.3025 1.89053L24.4548 0H26.3307V5.38039H24.5397V2.71357L23.3025 4.62659H23.2714L22.0334 2.71357V5.38039H20.2739V0ZM27.2257 0H29.0246V3.60199H31.5535V5.38039H27.2256V0H27.2257Z" fill="#1F1F1F"/>
<path d="M19.9879 24.4404H24.3455L23.9346 29.0299L19.9878 30.0952V33.7767L27.2424 31.7662L27.2956 31.1683L28.1273 21.8519L28.2136 20.9017H19.9879V24.4404ZM19.9879 17.2693V17.278H28.5356L28.6065 16.4826L28.7678 14.6886L28.8524 13.7393H19.9879V17.2693Z" fill="white"/>
</g>
<defs>
<clipPath id="clip0_114_1753">
<rect width="28.3657" height="40" fill="white" transform="translate(5.81738)"/>
</clipPath>
</defs>
</svg>
