<svg width="40" height="40" viewBox="0 0 40 40" fill="none" xmlns="http://www.w3.org/2000/svg">
<g clip-path="url(#clip0_114_1767)">
<path d="M0 0H40V40H0V0Z" fill="#F7DF1E"/>
<path d="M10.5177 33.4264L13.5787 31.5739C14.1693 32.6209 14.7065 33.5069 15.9951 33.5069C17.2302 33.5069 18.0091 33.0237 18.0091 31.1444V18.3634H21.768V31.1975C21.768 35.0908 19.4859 36.863 16.1562 36.863C13.1491 36.863 11.4037 35.3056 10.5176 33.4261M23.8098 33.0236L26.8704 31.2516C27.6762 32.5673 28.7234 33.5339 30.5759 33.5339C32.1335 33.5339 33.1266 32.7552 33.1266 31.6811C33.1266 30.3923 32.1063 29.9358 30.3879 29.1842L29.4484 28.7811C26.7363 27.6269 24.9374 26.1769 24.9374 23.1159C24.9374 20.2966 27.0854 18.1484 30.4418 18.1484C32.8315 18.1484 34.5499 18.9809 35.7849 21.1558L32.858 23.0355C32.2135 21.8809 31.5157 21.4245 30.4416 21.4245C29.3407 21.4245 28.6426 22.1227 28.6426 23.0355C28.6426 24.1631 29.3407 24.6198 30.9516 25.318L31.8913 25.7206C35.0866 27.0902 36.8855 28.4863 36.8855 31.6275C36.8855 35.0109 34.2274 36.8634 30.6563 36.8634C27.1659 36.8634 24.9104 35.1987 23.8096 33.0237" fill="#1F1F1F"/>
</g>
<defs>
<clipPath id="clip0_114_1767">
<rect width="40" height="40" fill="white"/>
</clipPath>
</defs>
</svg>
