<svg width="159" height="40" viewBox="0 0 159 40" fill="none" xmlns="http://www.w3.org/2000/svg">
<g clip-path="url(#clip0_114_1773)">
<path fill-rule="evenodd" clip-rule="evenodd" d="M151.761 4.66016L158.413 4.6968C158.413 4.6968 146.047 21.4536 145.037 22.8192C144.709 23.2614 144.211 23.7384 143.958 24.3296C143.319 25.8157 142.663 29.0759 142.663 29.0759L136.578 29.1063C136.578 29.1063 137.525 25.708 137.486 23.898C137.451 22.3168 136.644 20.7375 136.191 19.1517C135.734 17.5463 135.112 14.4051 135.112 14.4051H141.369L142.232 17.8572L151.761 4.66016Z" fill="#1A1918"/>
<path fill-rule="evenodd" clip-rule="evenodd" d="M139.167 8.19458C140.394 8.93454 141.148 13.0166 141.148 13.0166C141.148 13.0166 134.725 13.1113 131.23 13.1113H128.209L124.541 29.0763H118.932C118.932 29.0763 122.423 11.7264 123.247 8.58086C123.514 7.56236 125.077 7.73718 127.715 7.73718H131.929C134.649 7.73718 137.829 7.38971 139.167 8.19458ZM113.053 15.9699C113.053 15.9699 113.228 14.9452 112.46 13.7584C111.804 12.7468 111.198 12.5114 109.472 12.4574C104.598 12.3043 104.693 15.9159 104.693 15.9159L113.053 15.9699ZM118.339 11.8338C119.053 14.4102 117.692 20.4638 117.692 20.4638C117.692 20.4638 110.583 20.3451 106.689 20.4638C105.478 20.5007 104.029 20.3321 103.668 20.8954C103.161 21.6847 103.854 22.8998 104.441 23.4131C105.116 24.004 106.432 24.0714 106.905 24.1313C110.065 24.5328 116.68 24.235 116.68 24.235L115.534 29.3089C115.534 29.3089 106.186 29.7778 101.511 28.6617C100.588 28.4419 99.7223 27.9976 99.1376 27.3675C98.978 27.1952 98.8395 26.9601 98.6886 26.757C98.5681 26.5949 98.2166 26.0624 98.0589 25.6413C96.991 22.7958 98.184 17.3443 99.3534 14.4229C99.4891 14.0845 99.6596 13.655 99.8391 13.2902C100.063 12.8353 100.253 12.3217 100.432 12.0497C100.553 11.8621 100.702 11.7413 100.827 11.5643C100.972 11.355 101.14 11.1523 101.295 10.9712C101.727 10.4707 102.216 10.1167 102.805 9.67699C104.753 8.21818 108.279 7.08572 112.514 7.5192C114.108 7.68315 116.516 8.25264 117.692 9.89249C118.007 10.3303 118.162 11.1995 118.339 11.8338ZM92.6114 7.71731L98.0505 7.68533C98.0505 7.68533 95.0192 22.0645 93.4744 29.0763H87.2174C82.8447 29.0763 78.9505 29.6178 77.2936 26.4872C75.6863 23.4475 77.2203 18.4488 77.9407 15.0527C78.45 12.6493 79.5225 7.73687 79.5225 7.73687L85.1578 7.68533C85.1578 7.68533 83.5654 15.3334 82.9028 19.1521C82.6656 20.52 82.1762 21.808 82.6873 22.8194C83.1726 23.782 83.8523 23.8509 85.9232 23.8984C86.5793 23.9139 88.7281 23.8984 88.7281 23.8984L92.6114 7.71731ZM67.1536 18.0731C67.7231 16.0497 68.5537 13.8556 68.4482 12.0323C68.3339 10.0822 66.6987 8.30667 65.6436 7.93343C62.4657 6.81153 59.4907 8.37996 58.3082 9.65929C56.7786 11.3162 56.2607 13.2517 55.7191 15.9162C55.3161 17.8942 54.9857 19.9825 55.7191 21.5251C57.0177 24.2524 61.0675 23.6568 65.4278 23.6829C66.0749 21.9483 66.6099 20.0002 67.1536 18.0731ZM74.7048 10.0909C75.3258 14.6083 72.9423 19.5946 71.3003 23.9307C72.9746 24.0819 74.4418 23.9074 74.5474 24.0322C74.6573 24.194 73.4252 29.2079 72.9957 29.221C71.667 29.2555 67.2639 29.2921 65.4278 29.2921C59.4363 29.2921 53.8315 29.6824 50.9732 26.7033C49.8124 25.4929 49.0097 23.4171 48.8154 21.9567C48.4918 19.5189 48.8973 16.8347 49.4628 14.6217C49.9742 12.6235 50.6297 10.738 51.6203 9.01186C54.138 4.61741 58.5175 1.35542 65.8591 2.10842C67.2831 2.25499 69.3282 2.87851 70.6056 3.61847C70.6938 3.67033 71.0028 3.91626 71.0736 3.95942C72.7998 5.05772 74.3725 7.67881 74.7048 10.0909ZM48.1962 7.74339C47.8338 9.3938 47.4714 11.2647 47.0895 12.8955H41.0487C41.5166 11.0877 41.875 9.29039 42.3432 7.71762C44.2762 7.71762 46.0735 7.74339 48.1965 7.74339M40.8329 14.4059H46.6582C45.8965 18.6215 44.3883 25.4215 43.2062 30.155C42.4662 33.1174 41.9722 35.2789 39.97 36.843C39.7908 36.9833 39.6874 36.9166 39.5383 37.0588C39.1694 37.4106 37.4628 37.8186 36.5182 37.9217C34.9821 38.0881 33.2454 37.9434 31.3574 37.9046C31.8515 36.099 32.4104 33.9306 32.8507 32.3122C37.4526 32.8693 37.569 28.5195 38.4599 24.33C38.9754 21.9092 40.5376 15.3765 40.8329 14.4059Z" fill="#1A1918"/>
<path fill-rule="evenodd" clip-rule="evenodd" d="M27.2409 25.409L27.1161 25.7322C24.989 29.8745 21.2196 32.4161 15.8433 32.5282C13.33 32.5797 10.9353 31.9351 9.37089 31.2337C5.99494 29.7174 3.15526 26.9041 1.60453 23.8986C-0.620022 19.5902 -1.02121 13.5965 3.60426 9.12012C3.67568 9.12012 3.04316 10.0908 3.11458 10.0908L2.98726 10.505C-0.345835 20.9406 9.9233 29.8832 19.9058 28.8604C22.3049 28.6147 25.3641 27.3009 27.2409 25.409Z" fill="#21609B"/>
<path fill-rule="evenodd" clip-rule="evenodd" d="M21.2 21.0935C23.7114 21.1109 26.3347 19.9372 27.8882 18.2889C26.5291 21.7388 22.5939 23.9565 17.3169 23.251C12.8983 22.6598 8.6892 18.2135 8.25571 13.7585C7.93868 10.5158 9.06865 8.5806 10.9308 6.2334C10.2837 7.46088 10.0418 8.40796 9.98157 9.01191C9.27421 16.0259 15.5846 21.0569 21.2 21.0935Z" fill="#21609B"/>
<path fill-rule="evenodd" clip-rule="evenodd" d="M27.6354 12.3826C27.2451 13.2782 24.9973 14.9692 24.0045 15.1804C20.0737 16.0179 17.5563 14.1538 16.2375 12.033C16.0416 11.716 15.6792 10.8508 15.6143 10.6307C15.1029 8.89179 15.338 6.2617 16.8635 4.90039C16.404 6.19525 16.3369 7.69847 16.5788 8.67598C16.7254 9.2672 17.1719 10.2987 17.6187 10.9477C18.4317 12.1302 18.9471 12.4174 19.9917 13.045C20.4621 13.3275 20.9667 13.5542 21.1847 13.6166C22.175 13.9079 24.2654 14.6761 27.6354 12.3826Z" fill="#21609B"/>
</g>
<defs>
<clipPath id="clip0_114_1773">
<rect width="158.413" height="40" fill="white"/>
</clipPath>
</defs>
</svg>
