<svg width="50" height="40" viewBox="0 0 50 40" fill="none" xmlns="http://www.w3.org/2000/svg">
<g clip-path="url(#clip0_114_1841)">
<path d="M7.69936 27.5293L5.08629 28.4838L4.9458 36.2577L13.9917 32.9531C10.8892 31.9111 8.62346 30.0774 7.69936 27.5293Z" fill="#FDBD39"/>
<path d="M9.06673 19.3076L0 22.6198L5.08605 28.4844L7.69912 27.5299C6.77776 24.9892 7.34595 22.1172 9.06673 19.3076Z" fill="#F69833"/>
<path d="M24.3242 8.09022C12.7787 12.308 5.33535 21.0112 7.69906 27.5296L49.5092 12.2557C47.1455 5.73725 35.8698 3.87227 24.3242 8.08983" fill="#FECF33"/>
<path d="M32.8844 31.6953C44.4298 27.4775 51.8873 18.8127 49.5094 12.2559L7.69922 27.5296C10.077 34.0865 21.3388 35.9128 32.8844 31.6953Z" fill="#EE6723"/>
<path d="M49.5094 12.2559L7.69922 27.53C8.51795 29.7876 11.6399 30.8998 16.0206 30.8998C20.2912 30.8998 25.7581 29.8436 31.4577 27.7614C43.0032 23.5437 51.1263 16.7148 49.5094 12.2562" fill="#F69833"/>
<path d="M41.1882 8.88574C36.9173 8.88574 31.4504 9.94213 25.7509 12.0241C14.2055 16.2418 6.08241 23.0707 7.69919 27.5294L49.5093 12.2555C48.6908 9.99794 45.5687 8.88574 41.1882 8.88574Z" fill="#FDBD39"/>
<path d="M38.8792 36.6692H38.8788C37.6487 36.6692 35.8339 35.558 33.4848 33.3665C30.7055 30.774 27.5219 26.9767 24.5205 22.6741C21.519 18.3716 19.0526 14.0703 17.5758 10.5624C15.9666 6.73942 15.7371 4.38879 16.8938 3.57591C17.1475 3.39776 17.4532 3.30762 17.8023 3.30762C18.7432 3.30762 20.5763 4.0081 23.9662 7.34528L24.0403 7.41825L24.0302 7.52186C24.007 7.76136 23.9858 8.00104 23.9666 8.24089L23.9289 8.7123L23.5962 8.37728C19.944 4.69767 18.3361 4.3004 17.8144 4.3004C17.6655 4.3004 17.5471 4.33064 17.4622 4.39035C16.9603 4.74293 16.9281 6.46937 18.4881 10.1753C19.9387 13.6208 22.3691 17.8573 25.3319 22.1037C28.2948 26.3507 31.4294 30.092 34.1592 32.6383C37.1024 35.3839 38.4288 35.6803 38.8624 35.6803C39.0121 35.6803 39.1338 35.6483 39.224 35.5847C39.7533 35.213 39.7539 33.3634 38.0142 29.3745L37.9342 29.1915L38.1092 29.0959C38.284 29.0001 38.4532 28.9059 38.6117 28.8157L38.8212 28.6967L38.9176 28.9178C40.1512 31.7441 41.3043 35.3363 39.7923 36.3993C39.5375 36.5783 39.2304 36.6692 38.8792 36.6692ZM38.8788 36.2331H38.8792L38.879 36.451L38.8788 36.2331Z" fill="#EE6723"/>
<path d="M33.1644 31.576L33.1469 31.7932C32.855 35.4049 32.0864 39.7471 30.0825 39.9227C30.0423 39.9264 30.0005 39.9282 29.9586 39.9282C28.5974 39.9282 27.3094 37.9778 26.1309 34.1311C25.0156 30.4919 24.1504 25.6057 23.6942 20.3725C23.238 15.1403 23.2448 10.1774 23.7133 6.39824C24.2243 2.28 25.1964 0.129171 26.6031 0.00585366C26.6448 0.00195122 26.688 0 26.7305 0C27.718 0 29.2064 1.11805 30.7299 6.32663L29.7352 6.51863C29.2265 4.77815 28.672 3.36254 28.1215 2.38985C27.6124 1.49015 27.1174 0.994732 26.7278 0.994732C26.7149 0.994732 26.702 0.995122 26.6893 0.996098C26.0796 1.04976 25.1916 2.52878 24.6963 6.52098C24.2362 10.2326 24.2306 15.121 24.6807 20.2859C25.1313 25.4515 25.9824 30.2648 27.0776 33.839C27.568 35.4396 28.1059 36.7588 28.6333 37.6541C29.1196 38.4794 29.5902 38.9341 29.9582 38.9341C29.9711 38.9341 29.9836 38.9335 29.9962 38.9325C30.5797 38.8814 31.6792 37.3422 32.1418 31.9268L33.1644 31.576Z" fill="#EE6723"/>
</g>
<defs>
<clipPath id="clip0_114_1841">
<rect width="49.9512" height="40" fill="white"/>
</clipPath>
</defs>
</svg>
