<svg width="77" height="30" viewBox="0 0 77 30" fill="none" xmlns="http://www.w3.org/2000/svg">
<g filter="url(#filter0_d_172_2802)">
<path d="M18.2109 7.03125V18.1875C18.2109 19.3672 17.9297 20.418 17.3672 21.3398C16.8125 22.2617 16.0234 22.9844 15 23.5078C13.9844 24.0234 12.8125 24.2812 11.4844 24.2812C10.1406 24.2812 8.95703 24.0234 7.93359 23.5078C6.91016 22.9844 6.12109 22.2617 5.56641 21.3398C5.01172 20.418 4.73438 19.3672 4.73438 18.1875V7.03125H7.3125V17.9766C7.3125 18.7422 7.48047 19.4258 7.81641 20.0273C8.15234 20.6211 8.63672 21.0898 9.26953 21.4336C9.90234 21.7695 10.6406 21.9375 11.4844 21.9375C12.3281 21.9375 13.0625 21.7695 13.6875 21.4336C14.3125 21.0898 14.793 20.6211 15.1289 20.0273C15.4648 19.4258 15.6328 18.7422 15.6328 17.9766V7.03125H18.2109ZM33.8072 24H31.44L22.8384 11.6016H22.6978V24H20.1197V7.03125H22.5103L31.1119 19.4531H31.2759V7.03125H33.8072V24ZM34.4269 24L40.5206 7.03125H43.4972L49.6144 24H46.8722L45.3253 19.5234H38.7159L37.1691 24H34.4269ZM44.5753 17.3672L42.0675 10.125H41.9503L39.4542 17.3672H44.5753ZM69.2522 15.5156C69.2522 17.2891 68.9241 18.8359 68.2678 20.1562C67.6116 21.4688 66.7014 22.4766 65.5373 23.1797C64.3811 23.8828 63.0725 24.2344 61.6116 24.2344C60.135 24.2344 58.8147 23.8828 57.6506 23.1797C56.4944 22.4688 55.5881 21.457 54.9319 20.1445C54.2756 18.8242 53.9475 17.2812 53.9475 15.5156C53.9475 13.7422 54.2756 12.1992 54.9319 10.8867C55.5881 9.56641 56.4944 8.55469 57.6506 7.85156C58.8147 7.14844 60.135 6.79688 61.6116 6.79688C63.0725 6.79688 64.3811 7.14844 65.5373 7.85156C66.7014 8.55469 67.6116 9.56641 68.2678 10.8867C68.9241 12.1992 69.2522 13.7422 69.2522 15.5156ZM56.5022 15.5156C56.5022 16.8594 56.7209 18.0117 57.1584 18.9727C57.6038 19.9258 58.2092 20.6484 58.9748 21.1406C59.7483 21.6328 60.6272 21.875 61.6116 21.8672C62.5881 21.875 63.4592 21.6328 64.2248 21.1406C64.9983 20.6484 65.6038 19.9258 66.0413 18.9727C66.4788 18.0117 66.6975 16.8594 66.6975 15.5156C66.6975 14.1719 66.4788 13.0234 66.0413 12.0703C65.6038 11.1094 64.9983 10.3828 64.2248 9.89062C63.4592 9.39844 62.5881 9.15625 61.6116 9.16406C60.6272 9.15625 59.7483 9.39844 58.9748 9.89062C58.2092 10.3828 57.6038 11.1094 57.1584 12.0703C56.7209 13.0234 56.5022 14.1719 56.5022 15.5156ZM70.95 24.1641C70.6531 24.1641 70.3758 24.0898 70.118 23.9414C69.868 23.793 69.6648 23.5938 69.5086 23.3438C69.3602 23.0938 69.2859 22.8203 69.2859 22.5234C69.2859 22.2188 69.3602 21.9375 69.5086 21.6797C69.657 21.4219 69.8562 21.2188 70.1062 21.0703C70.3641 20.9141 70.6453 20.8359 70.95 20.8359C71.2469 20.8359 71.5203 20.9102 71.7703 21.0586C72.0281 21.207 72.2312 21.4102 72.3797 21.668C72.5359 21.9258 72.6141 22.2031 72.6141 22.5C72.6141 22.7969 72.5359 23.0742 72.3797 23.332C72.2312 23.582 72.0281 23.7852 71.7703 23.9414C71.5203 24.0898 71.2469 24.1641 70.95 24.1641Z" fill="#1F1F1F"/>
</g>
<defs>
<filter id="filter0_d_172_2802" x="0.734375" y="2.79688" width="75.8799" height="25.4844" filterUnits="userSpaceOnUse" color-interpolation-filters="sRGB">
<feFlood flood-opacity="0" result="BackgroundImageFix"/>
<feColorMatrix in="SourceAlpha" type="matrix" values="0 0 0 0 0 0 0 0 0 0 0 0 0 0 0 0 0 0 127 0" result="hardAlpha"/>
<feOffset/>
<feGaussianBlur stdDeviation="2"/>
<feComposite in2="hardAlpha" operator="out"/>
<feColorMatrix type="matrix" values="0 0 0 0 1 0 0 0 0 1 0 0 0 0 1 0 0 0 1 0"/>
<feBlend mode="normal" in2="BackgroundImageFix" result="effect1_dropShadow_172_2802"/>
<feBlend mode="normal" in="SourceGraphic" in2="effect1_dropShadow_172_2802" result="shape"/>
</filter>
</defs>
</svg>
