<svg width="41" height="767" viewBox="0 0 41 767" fill="none" xmlns="http://www.w3.org/2000/svg">
<g clip-path="url(#clip0_66_783)">
<path d="M20.5 7.5C20.8315 7.5 21.1495 7.6317 21.3839 7.86612C21.6183 8.10054 21.75 8.41848 21.75 8.75V13.75C21.75 14.0815 21.6183 14.3995 21.3839 14.6339C21.1495 14.8683 20.8315 15 20.5 15C20.1685 15 19.8505 14.8683 19.6161 14.6339C19.3817 14.3995 19.25 14.0815 19.25 13.75V8.75C19.25 8.41848 19.3817 8.10054 19.6161 7.86612C19.8505 7.6317 20.1685 7.5 20.5 7.5ZM30.5 27.5C30.5 30.1522 29.4464 32.6957 27.5711 34.5711C25.6957 36.4464 23.1522 37.5 20.5 37.5C17.8478 37.5 15.3043 36.4464 13.4289 34.5711C11.5536 32.6957 10.5 30.1522 10.5 27.5V12.5C10.5 9.84784 11.5536 7.3043 13.4289 5.42893C15.3043 3.55357 17.8478 2.5 20.5 2.5C23.1522 2.5 25.6957 3.55357 27.5711 5.42893C29.4464 7.3043 30.5 9.84784 30.5 12.5V27.5ZM20.5 0C17.1848 0 14.0054 1.31696 11.6612 3.66117C9.31696 6.00537 8 9.18479 8 12.5V27.5C8 30.8152 9.31696 33.9946 11.6612 36.3388C14.0054 38.683 17.1848 40 20.5 40C23.8152 40 26.9946 38.683 29.3388 36.3388C31.683 33.9946 33 30.8152 33 27.5V12.5C33 9.18479 31.683 6.00537 29.3388 3.66117C26.9946 1.31696 23.8152 0 20.5 0Z" fill="#B472F1"/>
</g>
<line x1="21" y1="40" x2="21" y2="752" stroke="#B472F1" stroke-dasharray="3 3"/>
<g clip-path="url(#clip1_66_783)">
<path d="M20.5 752C16.3675 752 13 755.367 13 759.5C13 763.632 16.3675 767 20.5 767C24.6325 767 28 763.632 28 759.5C28 755.367 24.6325 752 20.5 752ZM20.5 765.5C17.1925 765.5 14.5 762.807 14.5 759.5C14.5 756.193 17.1925 753.5 20.5 753.5C23.8075 753.5 26.5 756.193 26.5 759.5C26.5 762.807 23.8075 765.5 20.5 765.5ZM22.75 759.5C22.75 760.745 21.745 761.75 20.5 761.75C19.255 761.75 18.25 760.745 18.25 759.5C18.25 758.255 19.255 757.25 20.5 757.25C21.745 757.25 22.75 758.255 22.75 759.5Z" fill="#B472F1"/>
</g>
<defs>
<clipPath id="clip0_66_783">
<rect width="40" height="40" fill="white" transform="translate(0.5)"/>
</clipPath>
<clipPath id="clip1_66_783">
<rect width="15" height="15" fill="white" transform="translate(13 752)"/>
</clipPath>
</defs>
</svg>
