<svg width="42" height="43" viewBox="0 0 42 43" fill="none" xmlns="http://www.w3.org/2000/svg">
<path d="M14.8569 29.8476C14.9367 30.2061 15.1242 30.5315 15.3942 30.7804C15.6642 31.0292 16.0039 31.1895 16.3676 31.2398C16.7314 31.2901 17.1018 31.2279 17.4292 31.0617C17.7566 30.8954 18.0254 30.6331 18.1994 30.3097L21.3349 25.6695L28.6965 33.0311C28.8452 33.1798 29.0216 33.2977 29.2159 33.3781C29.4101 33.4586 29.6182 33.5 29.8285 33.5C30.0387 33.5 30.2468 33.4586 30.4411 33.3781C30.6353 33.2977 30.8117 33.1798 30.9604 33.0311L32.5311 31.4604C32.6798 31.3117 32.7977 31.1353 32.8781 30.9411C32.9586 30.7468 33 30.5387 33 30.3285C33 30.1182 32.9586 29.9101 32.8781 29.7159C32.7977 29.5216 32.6798 29.3452 32.5311 29.1965L25.1695 21.8349L29.8397 18.6994C30.1631 18.5253 30.4254 18.2564 30.5915 17.9289C30.7577 17.6014 30.8197 17.2309 30.7693 16.8671C30.7188 16.5033 30.5583 16.1637 30.3093 15.8937C30.0603 15.6238 29.7347 15.4365 29.3761 15.3569L9 9.5L14.8569 29.8476Z" stroke="black" stroke-width="1.5" stroke-linecap="round" stroke-linejoin="round"/>
</svg>
