<svg width="24" height="24" viewBox="0 0 24 24" fill="none" xmlns="http://www.w3.org/2000/svg">
<path d="M7.5 17.625H5.8125H4.9205C4.41115 17.625 3.92266 17.4227 3.5625 17.0625V17.0625C3.20234 16.7023 3 16.2139 3 15.7045V3.7955C3 3.28615 3.20234 2.79766 3.5625 2.4375V2.4375C3.92266 2.07734 4.41115 1.875 4.9205 1.875H14.25H15.375H17.0625H17.625M10.3125 21H19.875H20.4375M3.5625 16.5H5.8125H7.5M9.75 7.5C9.73492 7.57542 9.73039 7.66699 9.73089 7.75415C9.73206 7.96002 9.75 8.16573 9.75 8.37161V20.2045C9.75 20.7139 9.95234 21.2023 10.3125 21.5625V21.5625C10.6727 21.9227 11.1611 22.125 11.6705 22.125H19.0795C19.5889 22.125 20.0773 21.9227 20.4375 21.5625V21.5625C20.7977 21.2023 21 20.7139 21 20.2045V8.2955C21 7.78615 20.7977 7.29766 20.4375 6.9375V6.9375C20.0773 6.57734 19.5889 6.375 19.0795 6.375H12.085C11.2898 6.375 10.4131 6.48767 9.93365 7.12211C9.84392 7.24085 9.77635 7.36824 9.75 7.5Z" stroke="#1F1F1F" stroke-width="1.5"/>
</svg>
