<svg width="51" height="40" viewBox="0 0 51 40" fill="none" xmlns="http://www.w3.org/2000/svg">
<path d="M10.9323 0C8.06722 0 5.9471 2.5077 6.04203 5.22723C6.13324 7.83987 6.01477 11.2239 5.16291 13.9835C4.30851 16.7511 2.86332 18.5042 0.50293 18.7294V21.2706C2.86332 21.4958 4.30851 23.2489 5.16291 26.0167C6.01477 28.7763 6.13324 32.1599 6.04203 34.7728C5.9471 37.4919 8.06722 40 10.9327 40H40.2901C43.1554 40 45.2749 37.4923 45.18 34.7728C45.089 32.1601 45.2072 28.7763 46.0591 26.0167C46.9141 23.2491 48.3554 21.4956 50.7157 21.2706V18.7294C48.3554 18.5042 46.9141 16.7511 46.0593 13.9835C45.2072 11.2243 45.089 7.84006 45.18 5.22723C45.2749 2.50809 43.1554 0 40.2901 0H10.9319H10.9323ZM34.5456 24.6225C34.5456 28.3673 31.7526 30.6383 27.1173 30.6383H19.2264C19.0007 30.6382 18.7843 30.5485 18.6248 30.3889C18.4652 30.2293 18.3756 30.0129 18.3756 29.7872V10.2128C18.3755 10.101 18.3975 9.99035 18.4403 9.88707C18.483 9.78379 18.5457 9.68994 18.6248 9.61089C18.7038 9.53184 18.7976 9.46914 18.9009 9.42635C19.0042 9.38357 19.1148 9.36155 19.2266 9.36155H27.0722C30.9372 9.36155 33.4737 11.4554 33.4737 14.6698C33.4737 16.926 31.7673 18.9459 29.5934 19.2996V19.4175C32.553 19.7421 34.5456 21.7916 34.5456 24.6225ZM26.2566 12.0595H21.7577V18.4146H25.5472C28.4764 18.4146 30.0918 17.235 30.0918 15.1264C30.0918 13.1507 28.7025 12.0595 26.2566 12.0595ZM21.7577 20.9362V27.9395H26.4224C29.472 27.9395 31.0878 26.7158 31.0878 24.4158C31.0878 22.1154 29.4271 20.9358 26.2262 20.9358H21.7577V20.9362Z" fill="#7E13F8"/>
</svg>
