<svg width="40" height="40" viewBox="0 0 40 40" fill="none" xmlns="http://www.w3.org/2000/svg">
<g clip-path="url(#clip0_114_1770)">
<path fill-rule="evenodd" clip-rule="evenodd" d="M20 0C23.9556 0 27.8224 1.17298 31.1114 3.37061C34.4004 5.56823 36.9638 8.69181 38.4776 12.3463C39.9913 16.0009 40.3874 20.0222 39.6157 23.9018C38.844 27.7814 36.9392 31.3451 34.1421 34.1421C31.3451 36.9392 27.7814 38.844 23.9018 39.6157C20.0222 40.3874 16.0009 39.9913 12.3463 38.4776C8.69181 36.9638 5.56823 34.4004 3.37061 31.1114C1.17298 27.8224 0 23.9556 0 20C0 14.6957 2.10714 9.60859 5.85786 5.85786C9.60859 2.10714 14.6957 0 20 0Z" fill="#CC6699"/>
<path d="M31.8401 7.79401C30.9136 4.14899 24.8882 2.95549 19.1857 4.9818C15.6145 6.18579 12.315 8.08461 9.47612 10.5696C6.33555 13.5167 5.83428 16.0825 6.04034 17.1543C6.77105 20.9372 11.9342 23.4092 14.0576 25.2435V25.2537C13.4322 25.5631 8.84918 27.8929 7.77358 30.2682C6.64245 32.7783 7.95333 34.5789 8.82287 34.8208C10.1284 35.1361 11.4995 35.0335 12.744 34.5273C13.9884 34.0211 15.0436 33.1368 15.7617 31.9983C16.3551 31.076 16.7263 30.0277 16.8461 28.9364C16.9658 27.8452 16.8307 26.741 16.4514 25.7112C17.4742 25.4504 18.5374 25.3892 19.5832 25.5308C23.1725 25.9516 23.8769 28.1994 23.7424 29.1407C23.6792 29.4757 23.5448 29.7932 23.3483 30.0715C23.1519 30.3498 22.898 30.5824 22.604 30.7535C22.3526 30.9104 22.2752 30.9632 22.2971 31.0805C22.3278 31.2491 22.4432 31.2432 22.6581 31.2066C23.1974 31.0361 23.6727 30.7058 24.0212 30.259C24.3697 29.8122 24.5752 29.27 24.6105 28.7037C24.6967 26.5044 22.5908 24.0324 18.8613 24.0954C17.7781 24.0644 16.6972 24.213 15.6623 24.5353C15.6105 24.4759 15.5579 24.4172 15.5044 24.3593C13.1983 21.8917 8.93686 20.1454 9.11662 16.8274C9.18238 15.6207 9.60034 12.4448 17.3005 8.59163C23.6138 5.43487 28.6674 6.30433 29.5413 8.22947C30.7893 10.9801 26.8406 16.0899 20.2847 16.8274C19.5601 16.975 18.8117 16.957 18.095 16.7747C17.3782 16.5925 16.7116 16.2507 16.1445 15.7746C15.7997 15.3934 15.7485 15.3773 15.6199 15.4477C15.4109 15.5635 15.5439 15.9007 15.6199 16.1001C15.8709 16.554 16.2098 16.9531 16.6166 17.2738C17.0234 17.5946 17.4899 17.8306 17.9888 17.9681C20.5665 18.53 23.255 18.2633 25.6729 17.2057C29.6494 15.6676 32.7506 11.3789 31.8401 7.79401ZM14.9403 26.3724C15.2306 27.3764 15.2158 28.4443 14.898 29.4398C14.8639 29.5434 14.8264 29.646 14.7854 29.7477C14.7445 29.8493 14.7002 29.9471 14.6524 30.0409C14.4065 30.5458 14.0879 31.0117 13.7069 31.4236C12.5188 32.7241 10.8572 33.2167 10.1454 32.8018C9.37675 32.3546 9.7611 30.5204 11.1392 29.0586C12.1981 28.008 13.419 27.1356 14.7547 26.4751L14.9403 26.3724Z" fill="white"/>
</g>
<defs>
<clipPath id="clip0_114_1770">
<rect width="40" height="40" fill="white"/>
</clipPath>
</defs>
</svg>
