<svg width="40" height="40" viewBox="0 0 40 40" fill="none" xmlns="http://www.w3.org/2000/svg">
<g clip-path="url(#clip0_114_1819)">
<path d="M30.625 0H9.375C4.19733 0 0 4.19733 0 9.375V30.625C0 35.8027 4.19733 40 9.375 40H30.625C35.8027 40 40 35.8027 40 30.625V9.375C40 4.19733 35.8027 0 30.625 0Z" fill="#00005B"/>
<path d="M8.4375 28.5438V11.377C8.4375 11.2605 8.4875 11.1937 8.60422 11.1937C8.8875 11.1937 9.15422 11.1937 9.5375 11.177C9.9375 11.1605 10.3542 11.1605 10.8042 11.1437C11.2542 11.127 11.7375 11.127 12.2542 11.1105C12.7708 11.0938 13.2708 11.0938 13.7708 11.0938C15.1375 11.0938 16.2708 11.2605 17.2042 11.6105C18.0409 11.8946 18.8037 12.3614 19.4375 12.977C19.9745 13.5159 20.3895 14.1638 20.6542 14.877C20.9042 15.577 21.0375 16.2938 21.0375 17.0438C21.0375 18.477 20.7042 19.6605 20.0375 20.5938C19.3708 21.527 18.4375 22.227 17.3542 22.627C16.2208 23.0438 14.9708 23.1938 13.6042 23.1938C13.2042 23.1938 12.9375 23.1938 12.7708 23.177C12.6042 23.1605 12.3708 23.1605 12.0542 23.1605V28.5105C12.0708 28.627 11.9875 28.727 11.8708 28.7438H8.6375C8.50422 28.7438 8.4375 28.677 8.4375 28.527V28.5438ZM12.0708 14.427V20.027C12.3042 20.0438 12.5208 20.0605 12.7208 20.0605H13.6042C14.2542 20.0605 14.9042 19.9605 15.5208 19.7605C16.0542 19.6105 16.5208 19.2938 16.8875 18.877C17.2375 18.4605 17.4042 17.8938 17.4042 17.1605C17.4198 16.6396 17.2869 16.1251 17.0208 15.677C16.7375 15.2438 16.3375 14.9105 15.8542 14.727C15.2375 14.477 14.5708 14.377 13.8875 14.3938C13.4542 14.3938 13.0708 14.3937 12.7542 14.4105C12.4208 14.3937 12.1875 14.4105 12.0708 14.427ZM23.4375 15.4105H26.3542C26.5209 15.4105 26.6542 15.527 26.7042 15.677C26.7542 15.8105 26.7875 15.9438 26.8042 16.0938C26.8375 16.2605 26.8709 16.4438 26.8875 16.6105C26.9042 16.7938 26.9209 16.9938 26.9209 17.2105C27.4213 16.6262 28.0261 16.1401 28.7042 15.777C29.4709 15.3438 30.3542 15.127 31.2375 15.127C31.3542 15.1105 31.4542 15.1938 31.4709 15.3105V18.627C31.4709 18.7605 31.3875 18.8105 31.2042 18.8105C30.6042 18.7938 29.9875 18.8438 29.4042 18.977C28.9209 19.077 28.4542 19.227 28.0042 19.427C27.6875 19.577 27.3875 19.777 27.1542 20.0438V28.5438C27.1542 28.7105 27.0875 28.777 26.9375 28.777H23.6542C23.5209 28.7938 23.4042 28.7105 23.3875 28.577V19.277C23.3875 18.877 23.3875 18.4605 23.3709 18.027C23.3542 17.5938 23.3542 17.1605 23.3375 16.727C23.3375 16.3438 23.3042 15.977 23.2709 15.5938C23.2542 15.5105 23.3042 15.427 23.3875 15.4105C23.3875 15.3938 23.4209 15.3938 23.4375 15.4105Z" fill="#9999FF"/>
</g>
<defs>
<clipPath id="clip0_114_1819">
<rect width="40" height="40" fill="white"/>
</clipPath>
</defs>
</svg>
