<svg width="40" height="40" viewBox="0 0 40 40" fill="none" xmlns="http://www.w3.org/2000/svg">
<g clip-path="url(#clip0_114_1815)">
<path d="M30.625 0H9.375C4.19733 0 0 4.19733 0 9.375V30.625C0 35.8027 4.19733 40 9.375 40H30.625C35.8027 40 40 35.8027 40 30.625V9.375C40 4.19733 35.8027 0 30.625 0Z" fill="#330000"/>
<path d="M19.3331 23.8024H13.1331L11.8664 27.7191C11.8331 27.8691 11.6998 27.9691 11.5498 27.9524H8.41639C8.2331 27.9524 8.1831 27.8524 8.2331 27.6524L13.5998 12.2024C13.6498 12.0359 13.6998 11.8524 13.7664 11.6524C13.8331 11.3024 13.8664 10.9359 13.8664 10.5691C13.8498 10.4859 13.9164 10.4024 13.9998 10.3859H18.3164C18.4498 10.3859 18.5164 10.4359 18.5331 10.5191L24.6164 27.6859C24.6664 27.8691 24.6164 27.9524 24.4498 27.9524H20.9664C20.8498 27.9691 20.7331 27.8859 20.6998 27.7691L19.3331 23.8024ZM14.0998 20.4191H18.3331C18.2331 20.0691 18.0998 19.6524 17.9498 19.2191C17.7998 18.7691 17.6498 18.2859 17.4998 17.7859C17.3331 17.2691 17.1831 16.7691 17.0164 16.2524C16.8498 15.7359 16.6998 15.2524 16.5664 14.7691C16.4331 14.3026 16.3164 13.8691 16.1998 13.4691H16.1664C16.0164 14.1859 15.8331 14.9026 15.5998 15.6191C15.3498 16.4191 15.0998 17.2524 14.8331 18.0859C14.6179 18.8725 14.3733 19.6508 14.0998 20.4191ZM28.3331 13.3024C27.7831 13.3191 27.2498 13.1024 26.8498 12.7191C26.4665 12.3024 26.2665 11.7524 26.2831 11.1859C26.2665 10.6191 26.4831 10.0859 26.8831 9.70242C27.2831 9.31914 27.8165 9.11914 28.3665 9.11914C29.0165 9.11914 29.5165 9.31914 29.8831 9.70242C30.2525 10.1065 30.4498 10.6387 30.4331 11.1859C30.4498 11.7524 30.2498 12.3024 29.8498 12.7191C29.4665 13.1191 28.8998 13.3359 28.3331 13.3024ZM26.4665 27.7691V14.9359C26.4665 14.7691 26.5331 14.7024 26.6831 14.7024H29.9831C30.1331 14.7024 30.1998 14.7859 30.1998 14.9359V27.7691C30.1998 27.9524 30.1331 28.0359 29.9831 28.0359H26.7165C26.5498 28.0359 26.4665 27.9359 26.4665 27.7691Z" fill="#FF9A00"/>
</g>
<defs>
<clipPath id="clip0_114_1815">
<rect width="40" height="40" fill="white"/>
</clipPath>
</defs>
</svg>
