<svg width="40" height="40" viewBox="0 0 40 40" fill="none" xmlns="http://www.w3.org/2000/svg">
<g clip-path="url(#clip0_114_1811)">
<path d="M30.625 0H9.375C4.19733 0 0 4.19733 0 9.375V30.625C0 35.8027 4.19733 40 9.375 40H30.625C35.8027 40 40 35.8027 40 30.625V9.375C40 4.19733 35.8027 0 30.625 0Z" fill="#001E36"/>
<path d="M9 27.819V10.669C9 10.5523 9.05 10.4857 9.16672 10.4857C9.45 10.4857 9.71672 10.4857 10.1 10.469C10.5 10.4523 10.9167 10.4523 11.3667 10.4357C11.8167 10.419 12.3 10.419 12.8167 10.4023C13.3333 10.3857 13.8333 10.3857 14.3333 10.3857C15.7 10.3857 16.8333 10.5523 17.7667 10.9023C18.6034 11.1864 19.3663 11.6533 20 12.269C20.537 12.8078 20.952 13.4558 21.2167 14.169C21.4667 14.869 21.6 15.5857 21.6 16.3357C21.6 17.769 21.2667 18.9523 20.6 19.8857C19.9333 20.819 19 21.519 17.9167 21.919C16.7833 22.3357 15.5333 22.4857 14.1667 22.4857C13.7667 22.4857 13.5 22.4857 13.3333 22.469C13.1667 22.4523 12.9333 22.4523 12.6167 22.4523V27.8023C12.6333 27.919 12.55 28.019 12.4333 28.0357H9.2C9.06672 28.0357 9 27.969 9 27.819ZM12.6333 13.7023V19.3023C12.8667 19.319 13.0833 19.3357 13.2833 19.3357H14.1667C14.8167 19.3357 15.4667 19.2357 16.0833 19.0357C16.6167 18.8857 17.0833 18.569 17.45 18.1523C17.8 17.7357 17.9667 17.169 17.9667 16.4357C17.9824 15.9149 17.8494 15.4003 17.5833 14.9523C17.3 14.519 16.9 14.1857 16.4167 14.0023C15.8 13.7523 15.1333 13.6523 14.45 13.669C14.0167 13.669 13.6333 13.669 13.3167 13.6857C12.9833 13.669 12.75 13.6857 12.6333 13.7023ZM32 18.2857C31.5 18.019 30.9667 17.8357 30.4 17.719C29.7833 17.5857 29.1667 17.5023 28.5333 17.5023C28.2 17.4857 27.85 17.5357 27.5333 17.619C27.3167 17.669 27.1333 17.7857 27.0167 17.9523C26.9333 18.0857 26.8833 18.2523 26.8833 18.4023C26.8833 18.5523 26.95 18.7023 27.05 18.8357C27.2 19.019 27.4 19.169 27.6167 19.2857C28.0031 19.4859 28.3979 19.6694 28.8 19.8357C29.7 20.1357 30.5667 20.5523 31.3667 21.0523C31.9167 21.4023 32.3667 21.869 32.6833 22.4357C32.95 22.969 33.0833 23.5523 33.0667 24.1523C33.0833 24.9357 32.85 25.719 32.4167 26.369C31.9518 27.0343 31.3031 27.5498 30.55 27.8523C29.7333 28.2023 28.7333 28.3857 27.5333 28.3857C26.7667 28.3857 26.0167 28.319 25.2667 28.169C24.6789 28.0675 24.1072 27.8882 23.5667 27.6357C23.45 27.569 23.3667 27.4523 23.3833 27.319V24.419C23.3833 24.369 23.4 24.3023 23.45 24.269C23.5 24.2357 23.55 24.2523 23.6 24.2857C24.25 24.669 24.9333 24.9357 25.6667 25.1023C26.3 25.269 26.9667 25.3523 27.6333 25.3523C28.2667 25.3523 28.7167 25.269 29.0167 25.119C29.2833 25.0023 29.4667 24.719 29.4667 24.419C29.4667 24.1857 29.3333 23.969 29.0667 23.7523C28.8 23.5357 28.25 23.2857 27.4333 22.969C26.5955 22.6738 25.7999 22.2704 25.0667 21.769C24.5445 21.3968 24.1117 20.9128 23.8 20.3523C23.5333 19.819 23.4 19.2357 23.4167 18.6523C23.4167 17.9357 23.6167 17.2523 23.9833 16.6357C24.4 15.969 25.0167 15.4357 25.7333 15.1023C26.5167 14.7023 27.5 14.519 28.6833 14.519C29.3667 14.519 30.0667 14.569 30.75 14.669C31.25 14.7357 31.7333 14.869 32.1833 15.0523C32.25 15.069 32.3167 15.1357 32.35 15.2023C32.3667 15.269 32.3833 15.3357 32.3833 15.4023V18.119C32.3833 18.1857 32.35 18.2523 32.3 18.2857C32.15 18.319 32.0667 18.319 32 18.2857Z" fill="#31A8FF"/>
</g>
<defs>
<clipPath id="clip0_114_1811">
<rect width="40" height="40" fill="white"/>
</clipPath>
</defs>
</svg>
