<svg width="40" height="40" viewBox="0 0 40 40" fill="none" xmlns="http://www.w3.org/2000/svg">
<g clip-path="url(#clip0_114_1760)">
<path d="M19.9829 39.8987L8.43922 36.694L5.8667 7.84082H34.1337L31.5586 36.6896L19.9829 39.8987Z" fill="#264DE4"/>
<path d="M29.3537 34.8528L31.5542 10.2002H20V37.446L29.3537 34.8528Z" fill="#2965F1"/>
<path d="M11.7643 20.9017L12.0814 24.4404H20.0004V20.9017H11.7643ZM11.127 13.7393L11.4486 17.278H20.0004V13.7393H11.127ZM20.0004 30.0922L19.9849 30.0963L16.0439 29.0321L15.7919 26.2098H12.2395L12.7353 31.7662L19.9841 33.7784L20.0004 33.7739V30.0922Z" fill="#EBEBEB"/>
<path d="M12.519 0H16.8049V1.79235H14.3114V3.58471H16.8051V5.37695H12.519V0ZM17.6622 0H21.9482V1.55856H19.4546V1.87025H21.9482V5.45496H17.6623V3.81828H20.1559V3.50659H17.6621L17.6622 0ZM22.8055 0H27.0915V1.55856H24.5978V1.87025H27.0915V5.45496H22.8055V3.81828H25.2991V3.50659H22.8056V0H22.8055Z" fill="#1F1F1F"/>
<path d="M28.2258 21.1624L28.8646 14H20.0001V17.5387H24.9865L24.6645 21.1624H20.0001V24.7012H24.3577L23.9468 29.2906L20 30.3559V34.0375L27.2546 32.0269L27.3078 31.429L28.1395 22.1127L28.2258 21.1624Z" fill="white"/>
</g>
<defs>
<clipPath id="clip0_114_1760">
<rect width="28.3657" height="40" fill="white" transform="translate(5.81738)"/>
</clipPath>
</defs>
</svg>
