<svg width="40" height="40" viewBox="0 0 40 40" fill="none" xmlns="http://www.w3.org/2000/svg">
<g clip-path="url(#clip0_114_1823)">
<path d="M30.625 0H9.375C4.19733 0 0 4.19733 0 9.375V30.625C0 35.8027 4.19733 40 9.375 40H30.625C35.8027 40 40 35.8027 40 30.625V9.375C40 4.19733 35.8027 0 30.625 0Z" fill="#470137"/>
<path d="M20.9749 12.5335L16.2874 20.2679L21.2874 28.471C21.3186 28.5335 21.3343 28.596 21.3186 28.6585C21.303 28.721 21.2405 28.6741 21.1468 28.6898H17.5686C17.3186 28.6898 17.1468 28.6741 17.0374 28.5179C16.7093 27.8616 16.3655 27.221 16.0374 26.5648C15.7093 25.9241 15.3499 25.2679 14.9749 24.596C14.5999 23.9241 14.2249 23.2523 13.8499 22.5648H13.8186C13.4905 23.2366 13.1311 23.9085 12.7718 24.5804C12.4124 25.2523 12.053 25.9241 11.7093 26.5804C11.3499 27.2366 10.9905 27.9085 10.6311 28.5491C10.5686 28.7054 10.4436 28.721 10.2718 28.721H6.83425C6.77175 28.721 6.72488 28.7523 6.72488 28.6741C6.70925 28.6116 6.72488 28.5491 6.75613 28.5023L11.6155 20.5335L6.88113 12.5179C6.83425 12.4554 6.81863 12.3929 6.84988 12.3616C6.88113 12.3148 6.94363 12.2991 7.00613 12.2991H10.553C10.6311 12.2991 10.7093 12.3148 10.7718 12.3304C10.8343 12.3616 10.8811 12.4085 10.928 12.471C11.2249 13.1429 11.5686 13.8148 11.928 14.4866C12.303 15.1585 12.6624 15.8148 13.053 16.471C13.428 17.1273 13.7718 17.7835 14.0999 18.4554H14.1311C14.4593 17.7679 14.803 17.096 15.1468 16.4398C15.4905 15.7835 15.8499 15.1273 16.2093 14.471C16.5686 13.8148 16.9124 13.1429 17.2561 12.5023C17.2718 12.4398 17.303 12.3773 17.3499 12.346C17.4124 12.3148 17.4749 12.2991 17.553 12.3148H20.8499C20.928 12.2991 21.0061 12.346 21.0218 12.4241C21.0374 12.4398 21.0061 12.5023 20.9749 12.5335ZM28.1936 29.0181C27.0374 29.0337 25.8811 28.7993 24.8343 28.3149C23.8499 27.8618 23.0374 27.1118 22.4749 26.1899C21.8968 25.2368 21.6155 24.0493 21.6155 22.6274C21.5999 21.4712 21.8968 20.3306 22.4749 19.3306C23.0686 18.3149 23.928 17.4712 24.9593 16.9087C26.053 16.2993 27.3655 16.0024 28.9124 16.0024C28.9905 16.0024 29.0999 16.0024 29.2405 16.0181C29.3811 16.0337 29.5374 16.0337 29.7249 16.0493V11.1118C29.7249 11.0024 29.7718 10.9399 29.8811 10.9399H33.053C33.1311 10.9243 33.1936 10.9868 33.2093 11.0493V25.9556C33.2093 26.2368 33.2249 26.5493 33.2405 26.8931C33.2718 27.2212 33.2874 27.5337 33.303 27.7993C33.303 27.9087 33.2561 28.0024 33.1468 28.0493C32.3343 28.3931 31.4749 28.6431 30.5999 28.7993C29.803 28.9399 29.0061 29.0181 28.1936 29.0181ZM29.7249 25.8931V19.0181C29.5843 18.9868 29.4436 18.9556 29.303 18.9399C29.1311 18.9243 28.9593 18.9087 28.7874 18.9087C28.178 18.9087 27.5686 19.0337 27.0218 19.3149C26.4905 19.5806 26.0374 19.9712 25.6936 20.4712C25.3499 20.9712 25.178 21.6431 25.178 22.4556C25.1624 23.0024 25.2561 23.5493 25.4436 24.0649C25.5999 24.4868 25.8343 24.8618 26.1468 25.1743C26.4436 25.4556 26.803 25.6743 27.2093 25.7993C27.6311 25.9399 28.0686 26.0024 28.5061 26.0024C28.7405 26.0024 28.9593 25.9868 29.1624 25.9712C29.3655 25.9868 29.5374 25.9556 29.7249 25.8931Z" fill="#FF61F6"/>
</g>
<defs>
<clipPath id="clip0_114_1823">
<rect width="40" height="40" fill="white"/>
</clipPath>
</defs>
</svg>
