<svg width="40" height="40" viewBox="0 0 40 40" fill="none" xmlns="http://www.w3.org/2000/svg">
<g clip-path="url(#clip0_114_1827)">
<path d="M30.625 0H9.375C4.19733 0 0 4.19733 0 9.375V30.625C0 35.8027 4.19733 40 9.375 40H30.625C35.8027 40 40 35.8027 40 30.625V9.375C40 4.19733 35.8027 0 30.625 0Z" fill="#242938"/>
<mask id="mask0_114_1827" style="mask-type:luminance" maskUnits="userSpaceOnUse" x="9" y="4" width="22" height="32">
<path d="M9.53125 4.375H30.3688V35.625H9.53125V4.375Z" fill="white"/>
</mask>
<g mask="url(#mask0_114_1827)">
<path d="M14.7416 35.6247C17.6166 35.6247 19.9499 33.2914 19.9499 30.4164V25.208H14.7416C11.8666 25.208 9.5332 27.5414 9.5332 30.4164C9.5332 33.2914 11.8666 35.6247 14.7416 35.6247Z" fill="#0ACF83"/>
<path d="M9.5332 20.0003C9.5332 17.1253 11.8666 14.792 14.7416 14.792H19.9499V25.2086H14.7416C11.8666 25.2086 9.5332 22.8753 9.5332 20.0003Z" fill="#A259FF"/>
<path d="M9.5332 9.58328C9.5332 6.70828 11.8666 4.375 14.7416 4.375H19.9499V14.7917H14.7416C11.8666 14.7917 9.5332 12.4583 9.5332 9.58328Z" fill="#F24E1E"/>
<path d="M19.9497 4.375H25.158C28.033 4.375 30.3664 6.70828 30.3664 9.58328C30.3664 12.4583 28.033 14.7917 25.158 14.7917H19.9497V4.375Z" fill="#FF7262"/>
<path d="M30.3664 20.0003C30.3664 22.8753 28.033 25.2086 25.158 25.2086C22.283 25.2086 19.9497 22.8753 19.9497 20.0003C19.9497 17.1253 22.283 14.792 25.158 14.792C28.033 14.792 30.3664 17.1253 30.3664 20.0003Z" fill="#1ABCFE"/>
</g>
</g>
<defs>
<clipPath id="clip0_114_1827">
<rect width="40" height="40" fill="white"/>
</clipPath>
</defs>
</svg>
