<svg width="73" height="73" viewBox="0 0 73 73" fill="none" xmlns="http://www.w3.org/2000/svg">
<path d="M27.5482 41.2339L26.3767 48.657C26.2129 49.6941 26.4169 50.7557 26.9534 51.6582C27.4898 52.5607 28.325 53.2472 29.3142 53.5989L41.1848 57.823C42.3713 58.2463 43.6805 58.1513 44.7961 57.5606L53.9847 52.6952C58.7569 50.1683 59.8327 44.5068 57.7269 40.5299L48.7026 23.4869C46.2957 18.9413 40.3303 22.1 42.7372 26.6456L43.3384 27.781" stroke="#1F1F1F" stroke-width="1.5" stroke-linecap="round" stroke-linejoin="round"/>
<path d="M44.3192 26.9074L42.5145 23.4992C40.1076 18.9536 34.1422 22.1123 36.5492 26.6579L38.3538 30.0661L35.7216 25.0949C33.3147 20.5493 27.3493 23.708 29.7562 28.2536L32.3885 33.2247L25.5436 20.2978C25.1244 19.5074 24.4085 18.9158 23.5532 18.653C22.698 18.3902 21.7734 18.4778 20.9827 18.8965C20.1916 19.3154 19.5994 20.0313 19.3362 20.8869C19.073 21.7424 19.1605 22.6674 19.5793 23.4585L31.6876 46.3256" stroke="#1F1F1F" stroke-width="1.5" stroke-linecap="round" stroke-linejoin="round"/>
</svg>
